<svg width="151" height="171" viewBox="0 0 151 171" fill="none" xmlns="http://www.w3.org/2000/svg">
<path fill-rule="evenodd" clip-rule="evenodd" d="M35.317 59.724C39.79 60.007 42.529 63.165 45.048 66.637C51.106 74.974 54.737 84.777 60.962 93.016C62.451 94.979 73.628 110.376 75.326 104.263C75.759 102.443 75.759 102.443 75.391 98.199C74.954 93.154 65.036 55.099 83.315 43.27C94.522 36.028 95.486 52.937 103.835 53.687C108.374 54.095 111.895 47.904 113.886 43.36C101.851 27.444 81.4648 20.2686 62.1144 25.1381C42.764 30.0075 28.2019 45.9776 25.134 65.694C27.087 62.236 30.449 59.408 35.317 59.724Z" fill="white"/>
<path fill-rule="evenodd" clip-rule="evenodd" d="M114.163 43.726C111.832 50.716 107.083 61.918 100.81 60.095C92.379 57.642 87.78 36.548 80.318 47.165C72.839 57.8 78.799 93.865 76.386 104.221C75.927 106.45 74.5398 108.378 72.572 109.521C66.472 112.399 59.197 101.675 57.172 98.613C51.672 90.341 47.611 81.494 41.483 72.724C39.367 69.724 34.831 63.424 30.752 64.324C28.3501 64.7363 26.214 66.0947 24.822 68.095C24.6385 69.8387 24.5464 71.5907 24.546 73.344C24.5476 94.9357 38.49 114.056 59.0474 120.659C79.6047 127.262 102.074 119.837 114.648 102.284C127.223 84.732 127.026 61.0687 114.161 43.728L114.163 43.726Z" fill="white"/>
<path fill-rule="evenodd" clip-rule="evenodd" d="M133.176 63.17C132.113 56.2277 129.898 49.5119 126.621 43.3C120.127 32.6976 110.526 24.3526 99.122 19.4C115.364 28.8731 126.409 45.2257 129.131 63.83C134.222 96.852 113.182 127.821 81.931 133.875C82.515 133.796 83.091 133.732 83.666 133.642C107.23 129.811 125.328 112.19 131.566 90.011C131.566 90.003 131.578 89.996 131.578 89.987L131.846 88.974C134.06 80.5557 134.513 71.7712 133.176 63.17Z" fill="white"/>
<path fill-rule="evenodd" clip-rule="evenodd" d="M63.188 19.978C84.467 15.628 105.398 24.459 118.219 41.026C105.705 22.384 83.479 12.118 60.843 16.736C30.317 22.973 10.613 53.946 16.843 85.906C18.6349 95.1955 22.5794 103.936 28.36 111.425C23.8501 104.683 20.7299 97.1093 19.182 89.147C12.947 57.178 32.653 26.218 63.188 19.978Z" fill="white"/>
<path fill-rule="evenodd" clip-rule="evenodd" d="M21.444 85.329C25.434 114 50.9 134.187 78.719 130.516C91.4358 128.806 103.027 122.326 111.144 112.388C102.94 120.175 92.484 125.168 81.271 126.654C53.84 130.278 28.548 112.213 21.444 85.329Z" fill="white"/>
<path fill-rule="evenodd" clip-rule="evenodd" d="M12.005 98.342L10.842 94.786V94.782C11.235 94.45 11.686 94.094 12.22 93.705C12.545 93.466 13.032 93.113 13.679 92.656C13.6679 92.6231 13.635 92.5432 13.5848 92.4207C13.5493 92.3343 13.5053 92.2269 13.454 92.1C13.33 91.793 13.235 91.547 13.177 91.367C13.1588 91.3188 13.1325 91.2088 13.0885 91.0246C13.0723 90.9564 13.0536 90.8781 13.032 90.789C12.952 90.459 12.882 90.206 12.826 90.029L3.594 97.752L3.836 98.318L3.976 98.912L16.018 99.812L15.705 99.112L15.544 98.367C15.184 98.389 14.763 98.402 14.278 98.389C14.0454 98.3828 13.7508 98.3772 13.3932 98.3705C13.005 98.3632 12.5427 98.3545 12.005 98.342ZM10.021 95.442L10.936 98.232L6.909 97.961L10.021 95.442Z" fill="white"/>
<path d="M12.636 88.768L1.749 90.468C1.721 90.287 1.694 90.057 1.678 89.768C1.662 89.479 1.643 89.313 1.637 89.268C1.61722 89.1177 1.58817 88.9687 1.55 88.822C1.438 88.377 1.381 88.131 1.372 88.084L6.343 87.309C4.339 86.0657 2.46633 84.9503 0.725001 83.963C0.712001 83.771 0.708001 83.607 0.702001 83.454C0.696001 83.301 0.682001 83.2 0.671001 83.1C0.647314 82.9513 0.613909 82.8043 0.571001 82.66C0.538001 82.55 0.501001 82.414 0.456001 82.276L0.584001 82.253L3.726 84.432L5.626 85.673L11.1 80.433L11.323 80.397C11.348 80.579 11.37 80.728 11.379 80.845C11.408 81.308 11.421 81.557 11.428 81.6C11.457 81.787 11.506 82.012 11.576 82.289C11.646 82.566 11.686 82.737 11.695 82.777L7.213 87.177L12.262 86.391C12.289 86.565 12.307 86.713 12.317 86.831C12.347 87.294 12.362 87.545 12.37 87.589C12.395 87.766 12.452 87.998 12.519 88.28C12.586 88.562 12.627 88.723 12.636 88.769V88.768Z" fill="white"/>
<path fill-rule="evenodd" clip-rule="evenodd" d="M7.888 77.43L7.94 73.693H7.936C8.407 73.505 8.953 73.314 9.579 73.119C9.965 72.994 10.539 72.82 11.308 72.594C11.308 72.5496 11.3001 72.4359 11.2869 72.2471C11.2819 72.1764 11.2763 72.0951 11.27 72.003C11.247 71.665 11.241 71.407 11.241 71.212C11.2429 71.1511 11.2602 70.9672 11.2886 70.6653L11.293 70.618C11.324 70.288 11.34 70.022 11.34 69.832L0.114998 74.166L0.156998 74.778L0.0999985 75.39L11.212 80.128L11.135 79.356L11.235 78.6C10.887 78.497 10.487 78.369 10.028 78.208C9.569 78.047 8.859 77.788 7.888 77.43ZM6.954 74.049L6.913 76.987L3.189 75.428L6.954 74.049Z" fill="white"/>
<path fill-rule="evenodd" clip-rule="evenodd" d="M1.579 61L0.599998 66.407L11.355 68.365L12.155 63.939C12.4921 62.4398 12.2206 60.8681 11.4 59.569C10.5121 58.2422 9.09727 57.3605 7.515 57.148C6.25755 56.8675 4.9414 57.0415 3.8 57.639C2.57395 58.3495 1.75184 59.5936 1.579 61ZM10.871 65.823L1.942 64.206L1.936 64.202L2.213 62.655C2.3245 61.6606 2.8498 60.7592 3.66 60.172C4.68428 59.6113 5.88557 59.468 7.013 59.772C8.39552 59.8958 9.68076 60.5356 10.613 61.564C11.1849 62.4214 11.3665 63.481 11.113 64.48L10.871 65.823Z" fill="white"/>
<path d="M3.6 52.706L5.637 46.936C5.745 46.998 5.849 47.056 5.968 47.115C6.087 47.174 6.183 47.215 6.268 47.241C6.37308 47.2789 6.48111 47.308 6.591 47.328C6.739 47.356 6.861 47.377 6.945 47.392C6.691 47.886 6.445 48.398 6.219 48.938C5.993 49.478 5.75 50.105 5.496 50.82L8.75 51.972L9.3 50.4C9.442 50 9.543 49.7 9.6 49.478C9.657 49.256 9.74 48.922 9.822 48.49C9.928 48.554 10.037 48.608 10.152 48.664C10.2489 48.7142 10.3491 48.7577 10.452 48.794C10.5596 48.8282 10.6691 48.8559 10.78 48.877C10.93 48.907 11.045 48.933 11.13 48.951C11.01 49.183 10.875 49.47 10.723 49.821C10.571 50.172 10.437 50.482 10.333 50.761L9.782 52.343L13.625 53.7C13.879 52.98 14.085 52.341 14.248 51.78C14.411 51.219 14.537 50.666 14.648 50.126C14.753 50.185 14.865 50.241 14.982 50.298C15.0787 50.349 15.1789 50.3927 15.282 50.429C15.389 50.4635 15.4983 50.4906 15.609 50.51C15.75 50.541 15.872 50.566 15.958 50.584L13.917 56.355L3.6 52.706Z" fill="white"/>
<path d="M16.459 42C15.905 41.176 15.416 40.433 14.991 39.793C14.46 38.993 13.935 38.214 13.418 37.454C12.674 36.368 12.105 35.567 11.718 35.037C11.808 34.917 11.888 34.812 11.96 34.725C12.0171 34.6511 12.0689 34.5732 12.115 34.492C12.17 34.3927 12.2149 34.2882 12.249 34.18C12.307 34.039 12.349 33.923 12.382 33.847C13.642 34.382 14.894 34.914 16.156 35.431C18.122 36.2557 19.2473 36.7223 19.532 36.831C20.471 37.197 21.516 37.597 22.683 38.011C22.606 38.154 22.474 38.365 22.293 38.631C22.112 38.897 22.007 39.066 21.961 39.143C21.875 39.304 21.761 39.516 21.639 39.798C21.517 40.08 21.427 40.246 21.391 40.31C20.3428 39.7376 19.2635 39.2241 18.158 38.772C16.892 38.242 15.674 37.732 14.527 37.244C15.049 38.004 15.5667 38.7597 16.08 39.511C16.5933 40.2623 17.1107 41.01 17.632 41.754C17.982 42.268 18.524 43.008 19.232 43.986C19.1554 44.088 19.0839 44.1938 19.018 44.303C18.9857 44.3723 18.9573 44.4435 18.933 44.516C18.083 44.4547 17.2383 44.3977 16.399 44.345C15.349 44.281 14.453 44.235 13.699 44.194C12.772 44.145 11.837 44.094 10.909 44.04C11.888 44.77 12.602 45.305 13.055 45.64C13.776 46.167 14.46 46.646 15.104 47.071C15.748 47.496 16.363 47.883 16.952 48.213C16.852 48.354 16.759 48.469 16.691 48.574C16.6222 48.6537 16.5622 48.7405 16.512 48.833C16.4434 48.9479 16.3846 49.0683 16.336 49.193C16.295 49.293 16.256 49.393 16.217 49.516C15.3943 48.8333 14.5007 48.115 13.536 47.361C13 46.938 12.036 46.191 10.624 45.131C9.212 44.071 8.152 43.249 7.413 42.684C7.505 42.561 7.589 42.464 7.656 42.376C7.723 42.288 7.769 42.213 7.811 42.149C7.8767 42.0355 7.92969 41.9151 7.969 41.79C8.01 41.68 8.039 41.59 8.069 41.524C8.712 41.575 9.634 41.639 10.838 41.711C11.764 41.765 12.698 41.824 13.638 41.872C14.578 41.92 15.524 41.964 16.461 42H16.459Z" fill="white"/>
<path d="M24.094 36.643L15.416 29.849C15.531 29.708 15.681 29.529 15.881 29.314C16.081 29.099 16.195 28.986 16.221 28.948C16.336 28.807 16.421 28.684 16.486 28.589C16.739 28.197 16.875 27.989 16.901 27.949L25.581 34.749C25.466 34.89 25.366 35.005 25.295 35.09C24.974 35.428 24.795 35.612 24.774 35.643C24.662 35.789 24.528 35.983 24.368 36.229C24.208 36.475 24.12 36.611 24.094 36.644V36.643Z" fill="white"/>
<path fill-rule="evenodd" clip-rule="evenodd" d="M26.019 29.086L28.678 26.444L28.686 26.447C29.152 26.642 29.678 26.892 30.26 27.192C30.624 27.371 31.155 27.65 31.86 28.021C31.8844 27.9984 31.9421 27.9315 32.0303 27.8293C32.0903 27.7596 32.1645 27.6736 32.252 27.574C32.468 27.328 32.645 27.133 32.782 27C32.825 26.943 32.976 26.812 33.231 26.6C33.486 26.388 33.68 26.211 33.819 26.073L22.77 21.314L22.37 21.782L21.9 22.172L26.51 33.334L27 32.734L27.589 32.258C27.414 31.945 27.22 31.571 27.005 31.136C26.8404 30.8029 26.6106 30.3226 26.3122 29.6987C26.2209 29.5079 26.1232 29.3036 26.019 29.086ZM27.723 26.009L25.639 28.077L24.067 24.358L27.723 26.009Z" fill="white"/>
<path d="M37.328 17.087L40.215 21.544C40.066 21.649 39.935 21.724 39.834 21.782C39.419 21.992 39.199 22.118 39.162 22.136C38.9645 22.2666 38.7739 22.4075 38.591 22.558C38.363 22.735 38.23 22.834 38.191 22.858L32.208 13.6L37.345 10.28C37.384 10.388 37.445 10.503 37.497 10.623C37.5432 10.7189 37.595 10.8121 37.652 10.902C37.7157 10.9934 37.7852 11.0805 37.86 11.163C37.96 11.279 38.037 11.371 38.092 11.437C37.444 11.755 36.9127 12.029 36.498 12.259C36.087 12.487 35.538 12.822 34.857 13.265L36.735 16.165L38.163 15.24C38.478 15.03 38.707 14.879 38.863 14.762C39.019 14.645 39.297 14.411 39.719 14.062C39.765 14.172 39.812 14.277 39.876 14.401C39.9198 14.4998 39.9706 14.5954 40.028 14.687C40.07 14.743 40.137 14.828 40.238 14.948C40.339 15.068 40.413 15.148 40.473 15.214C40.173 15.368 39.873 15.527 39.568 15.685C39.263 15.843 38.992 16.005 38.746 16.162L37.332 17.08L37.328 17.087Z" fill="white"/>
<path d="M45.269 18.552L40.282 8.714C40.446 8.637 40.665 8.538 40.934 8.438C41.203 8.338 41.358 8.263 41.394 8.248C41.5311 8.1806 41.6646 8.10617 41.794 8.025C42.183 7.78 42.402 7.649 42.441 7.631L47.42 17.464C47.2871 17.5326 47.1505 17.594 47.011 17.648C46.583 17.82 46.352 17.914 46.311 17.932C46.148 18.014 45.945 18.137 45.697 18.288C45.449 18.439 45.31 18.531 45.272 18.552H45.269Z" fill="white"/>
<path d="M49.865 16.112L46.3 5.716L47.809 5.2C48.727 5.7 49.7213 6.23167 50.792 6.795C51.375 7.102 52.392 7.645 53.827 8.423C55.262 9.201 56.256 9.746 56.813 10.067L54.377 2.952L55 2.79L55.593 2.532L59.166 12.966L57.866 13.388C56.681 12.736 55.493 12.07 54.314 11.399C53.083 10.711 51.914 10.078 50.814 9.508L48.561 8.34L51.086 15.723L50.454 15.859L49.865 16.112Z" fill="white"/>
<path fill-rule="evenodd" clip-rule="evenodd" d="M62.622 8.9L66.331 8.345V8.341C66.583 8.77 66.862 9.283 67.156 9.87C67.2866 10.1151 67.4427 10.4381 67.6361 10.8383C67.7315 11.0358 67.836 11.2521 67.951 11.487C67.9719 11.4821 68.0068 11.475 68.0555 11.465C68.1562 11.4445 68.316 11.4119 68.533 11.362C68.7875 11.2943 69.0456 11.2405 69.306 11.201C69.372 11.193 69.568 11.177 69.9 11.152C70.232 11.127 70.493 11.103 70.686 11.073L64.581 0.7L63.988 0.845L63.374 0.888L60.498 12.612L61.25 12.427L62.014 12.387C62.0517 12.0636 62.1164 11.6793 62.1887 11.2498C62.1951 11.2119 62.2015 11.1736 62.208 11.135C62.2877 10.6606 62.4301 9.91098 62.6201 8.90998L62.622 8.9ZM65.809 7.426L62.909 7.864L63.834 3.942L65.809 7.426Z" fill="white"/>
<path d="M72.093 10.985L72.392 0L73.983 0.046C74.671 0.832 75.412 1.676 76.206 2.578C76.66 3.072 77.423 3.93367 78.495 5.163C79.57 6.39 80.307 7.252 80.718 7.746L80.918 0.228L81.558 0.297L82.2 0.264L81.91 11.282L80.543 11.228C79.658 10.199 78.782 9.159 77.912 8.123C76.9947 7.045 76.12 6.045 75.288 5.123L73.588 3.25L73.376 11.05L72.739 10.956L72.094 10.984L72.093 10.985Z" fill="white"/>
<path d="M91.177 3.886L90.937 3.84C90.8777 3.42174 90.7047 3.02778 90.437 2.701C90.1585 2.39572 89.7856 2.19286 89.378 2.125C88.9123 1.99966 88.4161 2.06214 87.996 2.299C87.6436 2.54016 87.4102 2.91968 87.354 3.343C87.248 3.912 87.566 4.503 88.297 5.11C89.6417 6.20333 90.3347 6.77933 90.376 6.838C91.0691 7.57323 91.3582 8.60127 91.15 9.59C90.9884 10.561 90.3845 11.4017 89.516 11.865C88.5323 12.3787 87.3974 12.5241 86.316 12.275C85.8621 12.1893 85.4202 12.0489 85 11.857C84.5964 11.6755 84.2262 11.4274 83.905 11.123C84.105 10.703 84.271 10.368 84.386 10.106C84.501 9.844 84.611 9.551 84.735 9.216L85.035 9.275C85.0286 9.79101 85.2107 10.2916 85.547 10.683C85.9022 11.0637 86.3727 11.317 86.886 11.404C87.3593 11.5076 87.854 11.4444 88.286 11.225C88.7044 10.9961 88.9867 10.5794 89.044 10.106C89.1388 9.35157 88.7878 8.61057 88.144 8.206C87.4607 7.66867 86.7793 7.129 86.1 6.587C85.4084 5.84386 85.1272 4.80783 85.348 3.817C85.4775 2.93961 85.9676 2.1562 86.7 1.656C87.5697 1.1115 88.624 0.94537 89.619 1.196C90.1264 1.28516 90.6152 1.45891 91.065 1.71C91.41 1.88344 91.7189 2.121 91.975 2.41C91.795 2.697 91.662 2.937 91.562 3.119C91.388 3.457 91.252 3.713 91.175 3.882L91.177 3.886Z" fill="white"/>
<path fill-rule="evenodd" clip-rule="evenodd" d="M101.962 15.129C103.377 14.5229 104.465 13.3421 104.955 11.883V11.881C105.469 10.6115 105.516 9.20093 105.088 7.9C104.442 6.23856 103.058 4.97375 101.345 4.48C99.7601 3.80082 97.9686 3.78785 96.374 4.444C94.97 5.07062 93.8955 6.26054 93.415 7.721C92.7807 9.16213 92.803 10.8076 93.476 12.231C94.2291 13.6292 95.5016 14.6754 97.019 15.144C98.601 15.8069 100.384 15.8015 101.962 15.129ZM98.018 5.65C98.8678 5.05543 99.9645 4.94198 100.918 5.35L100.912 5.353C101.926 5.68723 102.674 6.55159 102.86 7.603C103.058 8.63816 102.954 9.70841 102.56 10.686C102.173 11.8764 101.463 12.936 100.51 13.747C99.6556 14.4745 98.4707 14.6742 97.425 14.267C96.4289 13.9477 95.6812 13.1178 95.467 12.094C95.264 11.0812 95.3645 10.0309 95.756 9.075C96.1489 7.73206 96.9371 6.53858 98.018 5.65Z" fill="white"/>
<path d="M109.5 8.468L109.627 8C109.767 8.087 109.967 8.233 110.227 8.417C110.487 8.601 110.647 8.724 110.727 8.77C110.891 8.87 111.106 9.008 111.372 9.159C111.638 9.31 111.802 9.415 111.855 9.451C111.349 10.844 110.896 12.185 110.47 13.451C110.07 14.721 109.646 16.019 109.242 17.335C110.058 16.692 110.824 16.101 111.533 15.561C112.242 15.021 112.989 14.47 113.733 13.904C114.61 13.229 115.35 12.643 115.946 12.128L116.599 12.607L117.299 13.007C117.034 13.807 116.785 14.669 116.531 15.626C116.277 16.583 116.038 17.511 115.799 18.419C115.528 19.489 115.272 20.4 115.047 21.13C115.298 20.93 116.019 20.337 117.197 19.369C118.237 18.504 118.953 17.915 119.332 17.582C119.951 17.052 120.648 16.428 121.432 15.703L122.032 16.161L122.676 16.522C121.061 17.728 119.497 18.921 117.984 20.101C116.471 21.281 114.986 22.481 113.528 23.701C113.384 23.586 113.26 23.489 113.151 23.401C113.07 23.3297 112.986 23.2629 112.898 23.201C112.764 23.1137 112.625 23.0362 112.48 22.969C112.355 22.904 112.243 22.858 112.165 22.82C112.465 21.891 112.729 21.026 112.959 20.229C113.189 19.432 113.42 18.529 113.666 17.529C113.732 17.266 113.942 16.377 114.303 14.854C113.576 15.404 112.862 15.954 112.132 16.513C111.402 17.072 110.688 17.606 109.953 18.156C108.725 19.1013 107.971 19.681 107.691 19.895C107.547 19.7823 107.424 19.6823 107.321 19.595C107.237 19.5226 107.149 19.4558 107.056 19.395C106.926 19.3049 106.789 19.2262 106.646 19.16C106.513 19.093 106.408 19.047 106.329 19.009C106.651 18.043 107.029 16.879 107.439 15.517C107.788 14.393 108.128 13.239 108.474 12.038C108.82 10.837 109.154 9.647 109.503 8.477L109.5 8.468Z" fill="white"/>
<path d="M120.908 30.315L128.916 22.753C129.082 22.9223 129.237 23.1017 129.381 23.29C129.55 23.523 129.658 23.651 129.681 23.682C129.803 23.815 129.916 23.917 130.008 24.002C130.347 24.302 130.541 24.473 130.571 24.502L122.556 32.064C122.43 31.936 122.334 31.82 122.256 31.728C121.972 31.362 121.814 31.168 121.788 31.134C121.627 30.9638 121.456 30.8032 121.276 30.653C121.05 30.448 120.933 30.341 120.907 30.313L120.908 30.315Z" fill="white"/>
<path fill-rule="evenodd" clip-rule="evenodd" d="M127.322 37.6691L127.319 37.671L127.322 37.669L127.322 37.6691ZM127.322 37.6691L129.322 40.802C129.796 41.6181 130.512 42.2667 131.371 42.658C132.255 43.0406 133.273 42.9412 134.066 42.395C134.77 41.9929 135.214 41.2541 135.239 40.444C135.237 39.7737 135.065 39.1149 134.739 38.529L134.859 38.455C135.286 38.9841 135.861 39.3737 136.511 39.574C137.165 39.7777 137.876 39.6732 138.444 39.29C139.13 38.9192 139.551 38.1957 139.534 37.416C139.486 36.6515 139.221 35.9166 138.769 35.298L136.549 31.798L127.322 37.6691ZM137.048 34.341L137.046 34.3423L137.043 34.339L137.048 34.341ZM137.046 34.3423C137.228 34.5488 137.394 34.7686 137.543 35C137.815 35.3825 137.92 35.8594 137.834 36.321C137.696 36.7794 137.385 37.166 136.967 37.399C136.701 37.5729 136.405 37.6944 136.094 37.757C135.793 37.8184 135.481 37.8026 135.188 37.711C134.971 37.651 134.772 37.5403 134.607 37.388C134.42 37.2097 134.257 37.008 134.122 36.788L133.856 36.369L137.046 34.3423ZM133.074 36.871L129.394 39.205L129.837 39.886C130.107 40.3001 130.532 40.5883 131.017 40.686C132.279 40.8529 133.462 40.0363 133.754 38.797C133.73 38.0993 133.492 37.4258 133.074 36.867V36.871Z" fill="white"/>
<path d="M132.356 46.3L142.278 41.523C142.385 41.7342 142.478 41.9523 142.555 42.176C142.655 42.448 142.708 42.609 142.736 42.647C142.822 42.809 142.877 42.939 142.936 43.041C143.176 43.441 143.308 43.659 143.326 43.695L133.391 48.471C133.32 48.31 133.26 48.171 133.217 48.062C133.048 47.624 132.969 47.386 132.946 47.352C132.866 47.184 132.746 46.979 132.608 46.728C132.516 46.5897 132.431 46.4469 132.354 46.3H132.356Z" fill="white"/>
<path d="M137.281 58.641L134.363 50.1L134.617 50.013C136.342 50.443 138.117 50.868 139.938 51.27C141.759 51.672 143.538 52.05 145.263 52.391L145.458 52.322C145.235 51.656 144.987 50.991 144.734 50.33C144.034 48.574 143.687 47.676 143.666 47.622C143.82 47.589 143.95 47.568 144.066 47.542C144.156 47.5305 144.245 47.5094 144.331 47.479C144.441 47.4425 144.549 47.3988 144.654 47.348C144.734 47.302 144.828 47.248 144.933 47.187L147.644 55.127L147.377 55.212C146.298 54.941 145.125 54.661 143.855 54.38C142.788 54.1473 141.601 53.9033 140.294 53.648C139.104 53.417 137.911 53.185 136.736 52.959L136.586 53.008C136.826 53.745 137.186 54.7 137.655 55.89C138.124 57.08 138.42 57.849 138.549 58.215L138.149 58.291C138.041 58.312 137.957 58.333 137.888 58.353C137.762 58.3942 137.64 58.4474 137.524 58.512C137.424 58.568 137.345 58.604 137.278 58.643L137.281 58.641Z" fill="white"/>
<path d="M137.655 60.225L148.514 58.517L148.76 60.092C148.105 60.908 147.413 61.792 146.671 62.744C146.271 63.279 145.56 64.177 144.544 65.463C143.528 66.749 142.822 67.626 142.407 68.117L149.836 66.95L149.886 67.59L150.035 68.219L139.145 69.932L138.945 68.578C139.8 67.518 140.661 66.471 141.525 65.421C142.411 64.321 143.231 63.289 143.996 62.303L145.535 60.284L137.824 61.5L137.809 60.85L137.655 60.225H137.655Z" fill="white"/>
<path d="M150.209 72.594L150.133 78.71C150.014 78.692 149.894 78.672 149.768 78.654C149.662 78.6378 149.556 78.6291 149.449 78.628C149.337 78.6263 149.225 78.635 149.114 78.654C148.96 78.672 148.842 78.692 148.76 78.695C148.837 78.147 148.903 77.586 148.944 77.006C148.985 76.426 149.016 75.748 149.024 74.99L145.576 74.945L145.556 76.618C145.55 77.039 145.556 77.358 145.568 77.586C145.58 77.814 145.617 78.154 145.668 78.598C145.546 78.569 145.422 78.5467 145.297 78.531C145.194 78.5164 145.089 78.5084 144.985 78.507C144.872 78.5081 144.759 78.5161 144.647 78.531C144.493 78.551 144.376 78.569 144.288 78.577C144.324 78.319 144.36 77.998 144.399 77.625C144.438 77.252 144.457 76.903 144.462 76.601L144.48 74.937L140.403 74.88C140.39 75.638 140.403 76.314 140.425 76.892C140.447 77.47 140.51 78.047 140.571 78.592C140.456 78.566 140.344 78.548 140.215 78.528C139.995 78.496 139.773 78.496 139.553 78.528C139.399 78.548 139.276 78.561 139.199 78.574L139.276 72.448L150.207 72.591L150.209 72.594Z" fill="white"/>
<path d="M147.218 86.753L147.249 86.515C147.666 86.4312 148.052 86.2327 148.363 85.942C148.653 85.6475 148.833 85.2623 148.872 84.851C148.967 84.3789 148.875 83.8884 148.617 83.482C148.35 83.1484 147.957 82.94 147.531 82.906C146.964 82.832 146.39 83.183 145.837 83.95C144.813 85.356 144.28 86.083 144.229 86.128C143.535 86.8616 142.529 87.214 141.529 87.074C140.55 86.9665 139.676 86.4128 139.161 85.574C138.589 84.624 138.376 83.5004 138.561 82.407C138.619 81.9457 138.733 81.4933 138.902 81.06C139.06 80.6461 139.286 80.2612 139.57 79.921C140.005 80.1077 140.352 80.2493 140.609 80.346C140.881 80.446 141.183 80.546 141.526 80.646L141.49 80.946C140.971 80.9701 140.479 81.1835 140.107 81.546C139.744 81.921 139.518 82.407 139.464 82.926C139.391 83.404 139.487 83.8925 139.734 84.308C139.986 84.7089 140.415 84.9647 140.888 84.996C141.644 85.041 142.359 84.6503 142.729 83.99C143.23 83.268 143.73 82.5573 144.229 81.858C144.927 81.1174 145.948 80.7738 146.952 80.942C147.835 81.0147 148.646 81.4571 149.185 82.16C149.778 82.9965 150.009 84.036 149.828 85.045C149.761 85.5555 149.614 86.0522 149.393 86.517C149.243 86.8748 149.021 87.1976 148.74 87.465C148.447 87.308 148.205 87.186 148.012 87.096C147.659 86.942 147.398 86.832 147.223 86.755L147.218 86.753Z" fill="white"/>
<path d="M142.232 89.741L148.514 91.578C148.461 91.758 148.388 91.978 148.279 92.249C148.17 92.52 148.115 92.674 148.1 92.712C148.048 92.889 148.013 93.038 147.99 93.156C147.9 93.606 147.854 93.856 147.843 93.89L143.474 92.615L142.774 92.408C142.387 92.298 141.999 92.185 141.619 92.078C141.23 91.972 140.833 91.8974 140.432 91.855C140.095 91.8175 139.756 91.8091 139.418 91.83C139.097 91.8798 138.789 91.9938 138.513 92.165C137.934 92.5127 137.514 93.0718 137.34 93.724C137.129 94.3124 137.096 94.9502 137.247 95.557C137.48 96.1431 137.876 96.65 138.389 97.017C138.754 97.2804 139.159 97.483 139.589 97.617C140.116 97.817 140.764 98.017 141.501 98.234L146.163 99.601L145.935 100.201L145.8 100.833L140.324 99.225C139.483 99.0107 138.671 98.6936 137.907 98.281C137.155 97.8301 136.594 97.1183 136.333 96.281C136.16 95.7932 136.081 95.2771 136.101 94.76C136.128 94.2067 136.221 93.6585 136.377 93.127C136.621 92.1843 137.078 91.3102 137.713 90.572C138.357 89.8359 139.29 89.418 140.268 89.428C140.592 89.4325 140.915 89.4616 141.235 89.515C141.571 89.5691 141.902 89.6453 142.228 89.743L142.232 89.741Z" fill="white"/>
<path d="M102.223 1.423L101.353 3.983L101.993 4.209L103.603 1.887L102.223 1.423Z" fill="white"/>
<path d="M14.235 169.506C13.857 169.454 13.528 169.411 13.241 169.37C13.0092 169.335 12.7754 169.316 12.541 169.313C12.1968 169.309 11.8529 169.334 11.513 169.388C11.236 169.442 10.992 169.475 10.813 169.506C9.78567 166.654 8.627 163.541 7.337 160.167C6.049 156.795 4.854 153.731 3.749 150.998C2.967 149.06 1.71733 146.005 0 141.833C0.506 141.833 1.186 141.871 2.03 141.948C2.874 142.025 3.382 142.048 3.546 142.048C4.058 142.048 4.73567 142.015 5.579 141.948C6.43 141.871 6.929 141.833 7.092 141.833C7.92733 144.638 9.05733 147.964 10.482 151.809C11.718 155.142 12.969 158.476 14.235 161.809C15.4423 158.905 16.3423 156.699 16.935 155.191C17.825 152.987 18.6717 150.769 19.475 148.538C20.1737 146.6 20.9403 144.364 21.775 141.831L23.632 141.967L25.482 141.831C24.1647 144.872 22.8493 147.944 21.536 151.049C20.2227 154.154 18.9717 157.185 17.783 160.144C16.5163 163.319 15.3337 166.439 14.235 169.504V169.506Z" fill="white"/>
<path d="M26.9 169.512V141.85C27.354 141.85 27.947 141.881 28.673 141.95C29.399 142.019 29.812 142.05 29.92 142.05C30.381 142.05 30.756 142.033 31.052 142.009C32.212 141.909 32.843 141.85 32.946 141.85V169.512C32.489 169.512 32.112 169.506 31.815 169.475C30.665 169.375 30.028 169.313 29.92 169.313C29.465 169.313 28.872 169.347 28.149 169.413C27.426 169.479 27.006 169.513 26.9 169.513V169.512Z" fill="white"/>
<path d="M50.609 147.05H50C49.6616 146.042 49.0482 145.149 48.229 144.472C47.4115 143.838 46.3983 143.508 45.364 143.54C44.1502 143.443 42.9471 143.828 42.016 144.613C41.2684 145.379 40.8738 146.423 40.927 147.492C40.927 148.937 41.974 150.242 44.07 151.392C47.89 153.489 49.8667 154.592 50 154.7C52.045 156.201 53.2326 158.602 53.184 161.138C53.2363 163.607 52.134 165.96 50.203 167.5C48.0207 169.233 45.2868 170.12 42.503 170C41.3391 170.002 40.1794 169.859 39.051 169.574C37.9724 169.305 36.9444 168.863 36.007 168.266C36.33 167.14 36.573 166.237 36.738 165.542C36.903 164.847 37.047 164.061 37.176 163.179H37.945C38.1738 164.46 38.8622 165.613 39.881 166.423C40.9247 167.211 42.2058 167.619 43.513 167.581C44.7285 167.621 45.9197 167.235 46.881 166.49C47.7951 165.728 48.2956 164.579 48.231 163.39C48.231 161.674 47.195 160.253 45.123 159.127C43.1897 158.106 41.2667 157.086 39.354 156.066C37.2966 154.557 36.1191 152.129 36.209 149.579C36.1239 147.353 36.9721 145.193 38.549 143.62C40.4429 141.882 42.9587 140.983 45.525 141.128C46.8205 141.119 48.1087 141.322 49.339 141.728C50.2771 141.99 51.1503 142.445 51.903 143.063C51.603 143.84 51.374 144.486 51.213 144.991C50.947 145.909 50.743 146.6 50.613 147.051L50.609 147.05Z" fill="white"/>
<path d="M67.592 144.71V169.51C67.133 169.51 66.756 169.504 66.462 169.473C65.3 169.373 64.669 169.311 64.562 169.311C64.106 169.311 63.514 169.344 62.786 169.411C62.067 169.477 61.644 169.511 61.543 169.511V144.711C60.117 144.711 58.867 144.759 57.804 144.852C56.741 144.945 55.488 145.087 54.04 145.275C54.089 144.901 54.14 144.575 54.18 144.288C54.2167 144.041 54.2367 143.791 54.24 143.541C54.2422 143.211 54.2147 142.881 54.158 142.555C54.103 142.272 54.065 142.034 54.04 141.855H74.809C74.748 142.224 74.702 142.555 74.671 142.841C74.6295 143.072 74.6084 143.306 74.608 143.541C74.6024 143.887 74.6292 144.234 74.688 144.575C74.74 144.852 74.78 145.087 74.809 145.275C72.844 145.033 71.662 144.901 71.262 144.875C70.05 144.768 68.8267 144.715 67.592 144.714V144.71Z" fill="white"/>
<path d="M77.994 158.278V141.85C78.452 141.85 79.043 141.881 79.77 141.95C80.497 142.019 80.907 142.05 81.019 142.05C81.475 142.05 81.856 142.033 82.146 142.009C83.303 141.909 83.94 141.85 84.04 141.85V155.094C84.04 156.114 84.05 157.123 84.063 158.116C84.079 159.123 84.1794 160.126 84.363 161.116C84.5047 161.953 84.7278 162.775 85.029 163.569C85.3654 164.314 85.8539 164.981 86.463 165.527C87.7077 166.686 89.3582 167.308 91.058 167.26C92.6249 167.347 94.1825 166.969 95.535 166.173C96.787 165.204 97.7261 163.887 98.235 162.388C98.6094 161.325 98.8119 160.21 98.835 159.083C98.917 157.662 98.9583 155.984 98.959 154.048V141.848L100.574 141.967L102.187 141.848V156.184C102.264 158.36 102.074 160.537 101.621 162.666C101.063 164.793 99.7441 166.641 97.914 167.86C96.8592 168.626 95.6664 169.182 94.401 169.496C93.0567 169.831 91.6763 169.999 90.291 169.996C87.8475 170.07 85.4193 169.585 83.191 168.58C80.9545 167.558 79.2854 165.599 78.633 163.228C78.4044 162.446 78.2422 161.646 78.148 160.836C78.0391 159.986 77.9847 159.131 77.985 158.274L77.994 158.278Z" fill="white"/>
<path d="M113.8 141.85V166.408C115.523 166.408 116.987 166.367 118.221 166.29C119.437 166.207 121.047 166.06 123.026 165.848C122.973 166.148 122.937 166.448 122.896 166.774C122.856 167.041 122.834 167.311 122.829 167.581C122.829 167.765 122.865 168.049 122.906 168.425C122.967 168.799 123.006 169.101 123.026 169.313H107.755V141.85C108.216 141.85 108.805 141.881 109.532 141.95C110.259 142.019 110.673 142.05 110.783 142.05C111.242 142.05 111.61 142.033 111.912 142.009C113.067 141.909 113.694 141.85 113.804 141.85H113.8Z" fill="white"/>
<path fill-rule="evenodd" clip-rule="evenodd" d="M130.621 161.081H140.01L140.012 161.082C140.503 162.275 141 163.642 141.512 165.203C141.834 166.169 142.287 167.613 142.878 169.513C143.041 169.513 143.546 169.479 144.378 169.413C145.21 169.347 145.87 169.313 146.349 169.313C146.513 169.313 147.013 169.343 147.843 169.413C148.673 169.483 149.333 169.513 149.823 169.513L138.566 141.485L137.031 141.606L135.499 141.485L123.969 169.513L125.902 169.313L127.789 169.513C128.046 168.649 128.359 167.64 128.746 166.481C129.133 165.322 129.756 163.533 130.621 161.081ZM139.088 158.625H131.716L135.499 149.225L139.088 158.625Z" fill="white"/>
</svg>
